<?xml version="1.0" encoding="UTF-8"?><svg id="Ebene_1" xmlns="http://www.w3.org/2000/svg" viewBox="0 0 1080 360"><defs><style>.cls-1{fill:#defd61;}.cls-2{fill:#fff;}</style></defs><path class="cls-2" d="M26.65,274.53V89.71h34.32v157.89h81.85v26.93H26.65Z"/><path class="cls-2" d="M201.7,277.7c-14.96,0-26.8-5.15-35.51-15.45-8.71-10.3-13.07-25.3-13.07-45.02v-73.66h34.32v70.49c0,11.27,2.15,19.85,6.47,25.74,4.31,5.9,10.6,8.85,18.88,8.85,9.33,0,16.54-3.3,21.65-9.9,5.1-6.6,7.66-15.8,7.66-27.59v-67.59h34.32v130.96h-34.32v-19.27c-3.87,6.87-9.16,12.32-15.84,16.37-6.69,4.05-14.88,6.07-24.56,6.07Z"/><path class="cls-2" d="M297.8,274.53v-130.96h34.32v16.1c4.22-5.98,9.77-10.69,16.63-14.12,6.87-3.43,14.61-5.15,23.23-5.15,10.03,0,18.66,1.98,25.88,5.94,7.21,3.96,12.85,9.73,16.9,17.29,4.93-7.22,11.35-12.89,19.27-17.03,7.92-4.14,16.72-6.2,26.4-6.2,17.07,0,30.18,5.15,39.34,15.45,9.15,10.3,13.73,25.31,13.73,45.02v73.66h-34.06v-70.5c0-11.26-2.16-19.84-6.47-25.74-4.32-5.9-11.05-8.85-20.2-8.85s-16.2,3.3-21.65,9.9c-5.46,6.6-8.19,15.8-8.19,27.59v67.59h-34.06v-70.5c0-11.26-2.24-19.84-6.73-25.74-4.49-5.9-11.22-8.85-20.2-8.85s-15.97,3.3-21.52,9.9c-5.55,6.6-8.32,15.8-8.32,27.59v67.59h-34.32Z"/><path class="cls-2" d="M605,264.56l16.1-49.54h4.14c-8.08,12.68-15.34,23.13-21.78,31.36-6.44,8.23-12.35,14.65-17.71,19.25-5.37,4.6-10.43,7.82-15.18,9.66-4.76,1.84-9.43,2.76-14.03,2.76-5.93,0-11.15-1.13-15.64-3.37-4.5-2.25-8.03-5.7-10.58-10.35-2.56-4.65-3.83-10.51-3.83-17.56,0-8.28,1.53-17.23,4.6-26.84,3.07-9.61,7.31-19.1,12.73-28.45,5.42-9.36,11.81-17.87,19.17-25.54,7.36-7.67,15.34-13.8,23.93-18.4,8.59-4.6,17.58-6.9,26.99-6.9,6.75,0,12.55,1.25,17.41,3.76,4.86,2.51,9.33,6.72,13.42,12.65l-7.21,9.82c-.92-2.76-2.79-5.24-5.6-7.44-2.81-2.2-6.57-3.3-11.27-3.3-6.13,0-12.07,2.15-17.79,6.44-5.73,4.29-11.07,9.87-16.03,16.72-4.96,6.85-9.3,14.21-13.04,22.09-3.73,7.87-6.65,15.44-8.74,22.7-2.1,7.26-3.15,13.34-3.15,18.25,0,3.99.9,6.85,2.68,8.59,1.79,1.74,4.37,2.61,7.75,2.61,3.17,0,6.95-1.23,11.35-3.68,4.39-2.45,8.94-5.93,13.65-10.43,4.7-4.5,9.15-9.86,13.34-16.1,4.19-6.24,7.67-13.09,10.43-20.55l19.48-52.91,17.18-7.21h18.4l-38.96,121.01-4.91-9.2c3.99.1,8.18-.61,12.58-2.15,4.39-1.53,8.97-3.88,13.73-7.05,4.75-3.17,9.59-7.21,14.49-12.12l5.52,5.52c-11.15,14.01-21.47,24.1-30.98,30.29-9.51,6.19-18.61,9.28-27.3,9.28-6.65,0-11.25-1.13-13.8-3.37-2.56-2.25-3.07-5.68-1.53-10.28Z"/><path class="cls-2" d="M820.18,163.64c0,10.12-1.71,20.53-5.14,31.21-3.43,10.69-8.15,20.99-14.19,30.9-6.03,9.92-13.01,18.81-20.94,26.69-7.92,7.88-16.49,14.14-25.69,18.79s-18.66,6.98-28.37,6.98-17.1-2.38-22.47-7.13c-5.37-4.76-8.05-11.32-8.05-19.71,0-4.91.92-10.12,2.76-15.64l23.93-72.24h-2.3c-3.78,0-7.23.69-10.35,2.07-3.12,1.38-6.26,3.94-9.43,7.67-3.17,3.73-6.65,9.18-10.43,16.33l-7.21-3.22c3.58-9,7.36-16.51,11.35-22.55,3.99-6.03,8.31-10.86,12.96-14.49,4.65-3.63,9.64-6.24,14.95-7.82,5.31-1.59,11.04-2.38,17.18-2.38,3.27,0,6.31.13,9.13.38,2.81.26,5.47.59,7.98,1,2.5.41,4.83.92,6.98,1.53l-29.45,88.95c-.82,2.45-1.43,4.73-1.84,6.82-.41,2.1-.61,4.01-.61,5.75,0,4.5,1.17,7.85,3.53,10.05,2.35,2.2,5.62,3.3,9.82,3.3,4.81,0,9.76-1.48,14.88-4.45,5.11-2.96,9.97-6.9,14.57-11.81s8.72-10.4,12.35-16.49c3.63-6.08,6.52-12.24,8.66-18.48,2.15-6.23,3.22-12.17,3.22-17.79,0-3.99-.87-7.46-2.61-10.43-1.74-2.96-3.76-5.57-6.06-7.82-2.3-2.25-4.32-4.27-6.06-6.06-1.74-1.79-2.61-3.55-2.61-5.29,0-5.93,1.94-10.66,5.83-14.19,3.88-3.53,8.44-5.29,13.65-5.29,6.13,0,11.02,2.1,14.65,6.29,3.63,4.19,5.44,10.38,5.44,18.56Z"/><path class="cls-2" d="M897.33,151.68c-4.81,0-9.26,1.53-13.34,4.6-4.09,3.07-7.77,7.19-11.04,12.35-3.27,5.16-6.06,10.97-8.36,17.41-2.3,6.44-4.07,13.09-5.29,19.94-1.23,6.85-1.84,13.5-1.84,19.94,0,10.33,2.12,17.66,6.37,22.01,4.24,4.35,9.84,6.52,16.79,6.52,5.01,0,9.64-.82,13.88-2.45,4.24-1.63,8.28-4.39,12.12-8.28,3.84-3.88,7.64-9.3,11.43-16.26h9.36c-5.52,13.19-11.2,23.47-17.02,30.83-5.83,7.36-12.17,12.53-19.02,15.49-6.85,2.96-14.72,4.45-23.62,4.45-9.51,0-17.64-1.76-24.39-5.29-6.75-3.53-11.91-8.69-15.49-15.49-3.58-6.8-5.37-15-5.37-24.62,0-10.74,1.43-20.86,4.29-30.37,2.86-9.51,6.85-18.12,11.96-25.84,5.11-7.72,11.02-14.42,17.71-20.09,6.7-5.68,13.96-10.05,21.78-13.11,7.82-3.07,15.87-4.6,24.16-4.6s15.54,1.28,20.86,3.83c5.32,2.56,9.18,5.93,11.58,10.12,2.4,4.19,3.6,8.85,3.6,13.96,0,4.6-.95,9.18-2.84,13.73-1.89,4.55-4.37,8.26-7.44,11.12-5.83,2.45-11.91,4.86-18.25,7.21-6.34,2.35-12.83,4.63-19.48,6.82-6.65,2.2-13.34,4.29-20.09,6.29-6.75,1.99-13.45,3.86-20.09,5.6l.46-12.27c9.51-2.96,17.66-5.83,24.46-8.59,6.8-2.76,12.4-5.42,16.79-7.98,4.39-2.55,7.82-5.11,10.28-7.67,2.45-2.55,4.19-5.19,5.21-7.9,1.02-2.71,1.53-5.55,1.53-8.51,0-2.66-.44-4.93-1.3-6.82-.87-1.89-2.17-3.37-3.91-4.45-1.74-1.07-3.89-1.61-6.44-1.61Z"/><polygon class="cls-1" points="1053.35 116.47 1037.02 116.47 1023.04 116.47 1007.7 116.47 995.17 116.47 979.83 116.47 967.12 116.47 949.57 116.47 949.57 139.68 979.73 139.68 962.88 165.03 982.2 177.88 1001.44 148.96 1020.67 177.88 1039.99 165.03 1023.14 139.68 1053.35 139.68 1053.35 116.47"/><circle class="cls-1" cx="983.7" cy="96.93" r="15.14"/><circle class="cls-1" cx="1019.17" cy="96.93" r="15.14"/></svg>